<svg width="20" height="20" xmlns="http://www.w3.org/2000/svg">
 <title/>
 <desc/>

 <g>
  <title>background</title>
  <rect fill="none" id="canvas_background" height="402" width="582" y="-1" x="-1"/>
 </g>
 <g>
  <title>Layer 1</title>
  <g id="Page-1" fill-rule="evenodd" fill="none">
   <g transform="rotate(174 10,9.722222328186035) " id="Core" fill="#000000">
    <g id="radio-button-off">
     <path fill="#0000ff" id="Shape" d="m10,-0.277778c-5.5,0 -10,4.5 -10,10c0,5.5 4.5,10 10,10c5.5,0 10,-4.5 10,-10c0,-5.5 -4.5,-10 -10,-10l0,0zm0,18c-4.4,0 -8,-3.6 -8,-8c0,-4.4 3.6,-8 8,-8c4.4,0 8,3.6 8,8c0,4.4 -3.6,8 -8,8l0,0z"/>
    </g>
   </g>
  </g>
 </g>
</svg>